<svg aria-hidden="true" style="position: absolute; width: 0; height: 0; overflow: hidden;" version="1.1" xmlns="http://www.w3.org/2000/svg" xmlns:xlink="http://www.w3.org/1999/xlink">
    <defs>
        <symbol id="icon-home" viewBox="0 0 26 28">
            <title>home</title>
            <path d="M22 15.5v7.5c0 0.547-0.453 1-1 1h-6v-6h-4v6h-6c-0.547 0-1-0.453-1-1v-7.5c0-0.031 0.016-0.063 0.016-0.094l8.984-7.406 8.984 7.406c0.016 0.031 0.016 0.063 0.016 0.094zM25.484 14.422l-0.969 1.156c-0.078 0.094-0.203 0.156-0.328 0.172h-0.047c-0.125 0-0.234-0.031-0.328-0.109l-10.813-9.016-10.813 9.016c-0.109 0.078-0.234 0.125-0.375 0.109-0.125-0.016-0.25-0.078-0.328-0.172l-0.969-1.156c-0.172-0.203-0.141-0.531 0.063-0.703l11.234-9.359c0.656-0.547 1.719-0.547 2.375 0l3.813 3.187v-3.047c0-0.281 0.219-0.5 0.5-0.5h3c0.281 0 0.5 0.219 0.5 0.5v6.375l3.422 2.844c0.203 0.172 0.234 0.5 0.063 0.703z"></path>
        </symbol>
        <symbol id="icon-router" viewBox="0 0 24 24" style="fill: #026c9b;">
            <title>router</title>
            <path d="M15 18v-2.016h-2.016v2.016h2.016zM11.484 18v-2.016h-1.969v2.016h1.969zM8.016 18v-2.016h-2.016v2.016h2.016zM18.984 12.984c1.078 0 2.016 0.938 2.016 2.016v3.984c0 1.078-0.938 2.016-2.016 2.016h-13.969c-1.078 0-2.016-0.938-2.016-2.016v-3.984c0-1.078 0.938-2.016 2.016-2.016h9.984v-3.984h2.016v3.984h1.969zM19.313 6.703l-0.797 0.797c-0.703-0.703-1.641-0.984-2.531-0.984s-1.781 0.281-2.484 0.984l-0.797-0.797c0.891-0.891 2.063-1.406 3.281-1.406s2.438 0.516 3.328 1.406zM20.203 5.906c-1.219-1.078-2.719-1.688-4.219-1.688s-2.953 0.609-4.172 1.688l-0.797-0.797c1.406-1.406 3.188-2.109 4.969-2.109s3.609 0.703 5.016 2.109z"></path>
        </symbol>
        <symbol id="icon-home2" viewBox="0 0 32 32">
            <title>home2</title>
            <path d="M32 18.451l-16-12.42-16 12.42v-5.064l16-12.42 16 12.42zM28 18v12h-8v-8h-8v8h-8v-12l12-9z"></path>
        </symbol>
        <symbol id="icon-search" viewBox="0 0 26 28">
            <title>search</title>
            <path d="M18 13c0-3.859-3.141-7-7-7s-7 3.141-7 7 3.141 7 7 7 7-3.141 7-7zM26 26c0 1.094-0.906 2-2 2-0.531 0-1.047-0.219-1.406-0.594l-5.359-5.344c-1.828 1.266-4.016 1.937-6.234 1.937-6.078 0-11-4.922-11-11s4.922-11 11-11 11 4.922 11 11c0 2.219-0.672 4.406-1.937 6.234l5.359 5.359c0.359 0.359 0.578 0.875 0.578 1.406z"></path>
        </symbol>
        <symbol id="icon-file-empty" viewBox="0 0 32 32">
            <title>file-empty</title>
            <path d="M28.681 7.159c-0.694-0.947-1.662-2.053-2.724-3.116s-2.169-2.030-3.116-2.724c-1.612-1.182-2.393-1.319-2.841-1.319h-15.5c-1.378 0-2.5 1.121-2.5 2.5v27c0 1.378 1.122 2.5 2.5 2.5h23c1.378 0 2.5-1.122 2.5-2.5v-19.5c0-0.448-0.137-1.23-1.319-2.841zM24.543 5.457c0.959 0.959 1.712 1.825 2.268 2.543h-4.811v-4.811c0.718 0.556 1.584 1.309 2.543 2.268zM28 29.5c0 0.271-0.229 0.5-0.5 0.5h-23c-0.271 0-0.5-0.229-0.5-0.5v-27c0-0.271 0.229-0.5 0.5-0.5 0 0 15.499-0 15.5 0v7c0 0.552 0.448 1 1 1h7v19.5z"></path>
        </symbol>
        <symbol id="icon-file-text2" viewBox="0 0 32 32">
            <title>file-text2</title>
            <path d="M28.681 7.159c-0.694-0.947-1.662-2.053-2.724-3.116s-2.169-2.030-3.116-2.724c-1.612-1.182-2.393-1.319-2.841-1.319h-15.5c-1.378 0-2.5 1.121-2.5 2.5v27c0 1.378 1.122 2.5 2.5 2.5h23c1.378 0 2.5-1.122 2.5-2.5v-19.5c0-0.448-0.137-1.23-1.319-2.841zM24.543 5.457c0.959 0.959 1.712 1.825 2.268 2.543h-4.811v-4.811c0.718 0.556 1.584 1.309 2.543 2.268zM28 29.5c0 0.271-0.229 0.5-0.5 0.5h-23c-0.271 0-0.5-0.229-0.5-0.5v-27c0-0.271 0.229-0.5 0.5-0.5 0 0 15.499-0 15.5 0v7c0 0.552 0.448 1 1 1h7v19.5z"></path>
            <path d="M23 26h-14c-0.552 0-1-0.448-1-1s0.448-1 1-1h14c0.552 0 1 0.448 1 1s-0.448 1-1 1z"></path>
            <path d="M23 22h-14c-0.552 0-1-0.448-1-1s0.448-1 1-1h14c0.552 0 1 0.448 1 1s-0.448 1-1 1z"></path>
            <path d="M23 18h-14c-0.552 0-1-0.448-1-1s0.448-1 1-1h14c0.552 0 1 0.448 1 1s-0.448 1-1 1z"></path>
        </symbol>
        <symbol id="icon-file-picture" viewBox="0 0 32 32">
            <title>file-picture</title>
            <path d="M26 28h-20v-4l6-10 8.219 10 5.781-4v8z"></path>
            <path d="M26 15c0 1.657-1.343 3-3 3s-3-1.343-3-3 1.343-3 3-3c1.657 0 3 1.343 3 3z"></path>
            <path d="M28.681 7.159c-0.694-0.947-1.662-2.053-2.724-3.116s-2.169-2.030-3.116-2.724c-1.612-1.182-2.393-1.319-2.841-1.319h-15.5c-1.378 0-2.5 1.121-2.5 2.5v27c0 1.378 1.122 2.5 2.5 2.5h23c1.378 0 2.5-1.122 2.5-2.5v-19.5c0-0.448-0.137-1.23-1.319-2.841zM24.543 5.457c0.959 0.959 1.712 1.825 2.268 2.543h-4.811v-4.811c0.718 0.556 1.584 1.309 2.543 2.268zM28 29.5c0 0.271-0.229 0.5-0.5 0.5h-23c-0.271 0-0.5-0.229-0.5-0.5v-27c0-0.271 0.229-0.5 0.5-0.5 0 0 15.499-0 15.5 0v7c0 0.552 0.448 1 1 1h7v19.5z"></path>
        </symbol>
        <symbol id="icon-file-music" viewBox="0 0 32 32">
            <title>file-music</title>
            <path d="M28.681 7.159c-0.694-0.947-1.662-2.053-2.724-3.116s-2.169-2.030-3.116-2.724c-1.612-1.182-2.393-1.319-2.841-1.319h-15.5c-1.378 0-2.5 1.121-2.5 2.5v27c0 1.378 1.121 2.5 2.5 2.5h23c1.378 0 2.5-1.122 2.5-2.5v-19.5c0-0.448-0.137-1.23-1.319-2.841v0zM24.543 5.457c0.959 0.959 1.712 1.825 2.268 2.543h-4.811v-4.811c0.718 0.556 1.584 1.309 2.543 2.268v0zM28 29.5c0 0.271-0.229 0.5-0.5 0.5h-23c-0.271 0-0.5-0.229-0.5-0.5v-27c0-0.271 0.229-0.5 0.5-0.5 0 0 15.499-0 15.5 0v7c0 0.552 0.448 1 1 1h7v19.5z"></path>
            <path d="M23.634 12.227c-0.232-0.19-0.536-0.266-0.83-0.207l-10 2c-0.467 0.094-0.804 0.504-0.804 0.981v7.402c-0.588-0.255-1.271-0.402-2-0.402-2.209 0-4 1.343-4 3s1.791 3 4 3 4-1.343 4-3v-7.18l8-1.6v4.183c-0.588-0.255-1.271-0.402-2-0.402-2.209 0-4 1.343-4 3s1.791 3 4 3 4-1.343 4-3v-10c0-0.3-0.134-0.583-0.366-0.773z"></path>
        </symbol>
        <symbol id="icon-file-play" viewBox="0 0 32 32">
            <title>file-play</title>
            <path d="M12 12l10 7-10 7v-14z"></path>
            <path d="M28.681 7.159c-0.694-0.947-1.662-2.053-2.724-3.116s-2.169-2.030-3.116-2.724c-1.612-1.182-2.393-1.319-2.841-1.319h-15.5c-1.378 0-2.5 1.121-2.5 2.5v27c0 1.378 1.122 2.5 2.5 2.5h23c1.378 0 2.5-1.122 2.5-2.5v-19.5c0-0.448-0.137-1.23-1.319-2.841zM24.543 5.457c0.959 0.959 1.712 1.825 2.268 2.543h-4.811v-4.811c0.718 0.556 1.584 1.309 2.543 2.268zM28 29.5c0 0.271-0.229 0.5-0.5 0.5h-23c-0.271 0-0.5-0.229-0.5-0.5v-27c0-0.271 0.229-0.5 0.5-0.5 0 0 15.499-0 15.5 0v7c0 0.552 0.448 1 1 1h7v19.5z"></path>
        </symbol>
        <symbol id="icon-file-video" viewBox="0 0 32 32">
            <title>file-video</title>
            <path d="M28.681 7.159c-0.694-0.947-1.662-2.053-2.724-3.116s-2.169-2.030-3.116-2.724c-1.612-1.182-2.394-1.319-2.841-1.319h-15.5c-1.378 0-2.5 1.121-2.5 2.5v27c0 1.378 1.121 2.5 2.5 2.5h23c1.378 0 2.5-1.122 2.5-2.5v-19.5c0-0.448-0.137-1.23-1.319-2.841v0 0zM24.543 5.457c0.959 0.959 1.712 1.825 2.268 2.543h-4.811v-4.811c0.718 0.556 1.584 1.309 2.543 2.268v0 0zM28 29.5c0 0.271-0.229 0.5-0.5 0.5h-23c-0.271 0-0.5-0.229-0.5-0.5v-27c0-0.271 0.229-0.5 0.5-0.5 0 0 15.499-0 15.5 0v7c0 0.552 0.448 1 1 1h7v19.5z"></path>
            <path d="M8 16h10v10h-10v-10z"></path>
            <path d="M18 20l6-4v10l-6-4z"></path>
        </symbol>
        <symbol id="icon-clock" viewBox="0 0 32 32">
            <title>clock</title>
            <path d="M20.586 23.414l-6.586-6.586v-8.828h4v7.172l5.414 5.414zM16 0c-8.837 0-16 7.163-16 16s7.163 16 16 16 16-7.163 16-16-7.163-16-16-16zM16 28c-6.627 0-12-5.373-12-12s5.373-12 12-12c6.627 0 12 5.373 12 12s-5.373 12-12 12z"></path>
        </symbol>
        <symbol id="icon-display" viewBox="0 0 32 32">
            <title>display</title>
            <path d="M0 2v20h32v-20h-32zM30 20h-28v-16h28v16zM21 24h-10l-1 4-2 2h16l-2-2z"></path>
        </symbol>
        <symbol id="icon-mobile" viewBox="0 0 32 32">
            <title>mobile</title>
            <path d="M23 0h-14c-1.65 0-3 1.35-3 3v26c0 1.65 1.35 3 3 3h14c1.65 0 3-1.35 3-3v-26c0-1.65-1.35-3-3-3zM12 1.5h8v1h-8v-1zM16 30c-1.105 0-2-0.895-2-2s0.895-2 2-2 2 0.895 2 2-0.895 2-2 2zM24 24h-16v-20h16v20z"></path>
        </symbol>
        <symbol id="icon-floppy-disk" viewBox="0 0 32 32">
            <title>floppy-disk</title>
            <path d="M28 0h-28v32h32v-28l-4-4zM16 4h4v8h-4v-8zM28 28h-24v-24h2v10h18v-10h2.343l1.657 1.657v22.343z"></path>
        </symbol>
        <symbol id="icon-stats-bars" viewBox="0 0 32 32">
            <title>stats-bars</title>
            <path d="M0 26h32v4h-32zM4 18h4v6h-4zM10 10h4v14h-4zM16 16h4v8h-4zM22 4h4v20h-4z"></path>
        </symbol>
        <symbol id="icon-tree" viewBox="0 0 32 32">
            <title>tree</title>
            <path d="M30.5 24h-0.5v-6.5c0-1.93-1.57-3.5-3.5-3.5h-8.5v-4h0.5c0.825 0 1.5-0.675 1.5-1.5v-5c0-0.825-0.675-1.5-1.5-1.5h-5c-0.825 0-1.5 0.675-1.5 1.5v5c0 0.825 0.675 1.5 1.5 1.5h0.5v4h-8.5c-1.93 0-3.5 1.57-3.5 3.5v6.5h-0.5c-0.825 0-1.5 0.675-1.5 1.5v5c0 0.825 0.675 1.5 1.5 1.5h5c0.825 0 1.5-0.675 1.5-1.5v-5c0-0.825-0.675-1.5-1.5-1.5h-0.5v-6h8v6h-0.5c-0.825 0-1.5 0.675-1.5 1.5v5c0 0.825 0.675 1.5 1.5 1.5h5c0.825 0 1.5-0.675 1.5-1.5v-5c0-0.825-0.675-1.5-1.5-1.5h-0.5v-6h8v6h-0.5c-0.825 0-1.5 0.675-1.5 1.5v5c0 0.825 0.675 1.5 1.5 1.5h5c0.825 0 1.5-0.675 1.5-1.5v-5c0-0.825-0.675-1.5-1.5-1.5zM6 30h-4v-4h4v4zM18 30h-4v-4h4v4zM14 8v-4h4v4h-4zM30 30h-4v-4h4v4z"></path>
        </symbol>
        <symbol id="icon-download3" viewBox="0 0 32 32">
            <title>download3</title>
            <path d="M23 14l-8 8-8-8h5v-12h6v12zM15 22h-15v8h30v-8h-15zM28 26h-4v-2h4v2z"></path>
        </symbol>
        <symbol id="icon-sphere" viewBox="0 0 32 32">
            <title>sphere</title>
            <path d="M15 2c-8.284 0-15 6.716-15 15s6.716 15 15 15c8.284 0 15-6.716 15-15s-6.716-15-15-15zM23.487 22c0.268-1.264 0.437-2.606 0.492-4h3.983c-0.104 1.381-0.426 2.722-0.959 4h-3.516zM6.513 12c-0.268 1.264-0.437 2.606-0.492 4h-3.983c0.104-1.381 0.426-2.722 0.959-4h3.516zM21.439 12c0.3 1.28 0.481 2.62 0.54 4h-5.979v-4h5.439zM16 10v-5.854c0.456 0.133 0.908 0.355 1.351 0.668 0.831 0.586 1.625 1.488 2.298 2.609 0.465 0.775 0.867 1.638 1.203 2.578h-4.852zM10.351 7.422c0.673-1.121 1.467-2.023 2.298-2.609 0.443-0.313 0.895-0.535 1.351-0.668v5.854h-4.852c0.336-0.94 0.738-1.803 1.203-2.578zM14 12v4h-5.979c0.059-1.38 0.24-2.72 0.54-4h5.439zM2.997 22c-0.533-1.278-0.854-2.619-0.959-4h3.983c0.055 1.394 0.224 2.736 0.492 4h-3.516zM8.021 18h5.979v4h-5.439c-0.3-1.28-0.481-2.62-0.54-4zM14 24v5.854c-0.456-0.133-0.908-0.355-1.351-0.668-0.831-0.586-1.625-1.488-2.298-2.609-0.465-0.775-0.867-1.638-1.203-2.578h4.852zM19.649 26.578c-0.673 1.121-1.467 2.023-2.298 2.609-0.443 0.312-0.895 0.535-1.351 0.668v-5.854h4.852c-0.336 0.94-0.738 1.802-1.203 2.578zM16 22v-4h5.979c-0.059 1.38-0.24 2.72-0.54 4h-5.439zM23.98 16c-0.055-1.394-0.224-2.736-0.492-4h3.516c0.533 1.278 0.855 2.619 0.959 4h-3.983zM25.958 10h-2.997c-0.582-1.836-1.387-3.447-2.354-4.732 1.329 0.636 2.533 1.488 3.585 2.54 0.671 0.671 1.261 1.404 1.766 2.192zM5.808 7.808c1.052-1.052 2.256-1.904 3.585-2.54-0.967 1.285-1.771 2.896-2.354 4.732h-2.997c0.504-0.788 1.094-1.521 1.766-2.192zM4.042 24h2.997c0.583 1.836 1.387 3.447 2.354 4.732-1.329-0.636-2.533-1.488-3.585-2.54-0.671-0.671-1.261-1.404-1.766-2.192zM24.192 26.192c-1.052 1.052-2.256 1.904-3.585 2.54 0.967-1.285 1.771-2.896 2.354-4.732h2.997c-0.504 0.788-1.094 1.521-1.766 2.192z"></path>
        </symbol>
        <symbol id="icon-info" viewBox="0 0 32 32">
            <title>info</title>
            <path d="M14 9.5c0-0.825 0.675-1.5 1.5-1.5h1c0.825 0 1.5 0.675 1.5 1.5v1c0 0.825-0.675 1.5-1.5 1.5h-1c-0.825 0-1.5-0.675-1.5-1.5v-1z"></path>
            <path d="M20 24h-8v-2h2v-6h-2v-2h6v8h2z"></path>
            <path d="M16 0c-8.837 0-16 7.163-16 16s7.163 16 16 16 16-7.163 16-16-7.163-16-16-16zM16 29c-7.18 0-13-5.82-13-13s5.82-13 13-13 13 5.82 13 13-5.82 13-13 13z"></path>
        </symbol>
        <symbol id="icon-checkmark" viewBox="0 0 32 32">
            <title>checkmark</title>
            <path d="M27 4l-15 15-7-7-5 5 12 12 20-20z"></path>
        </symbol>
        <symbol id="icon-appleinc" viewBox="0 0 32 32" style="fill: #a6b1b7;">
            <title>appleinc</title>
            <path d="M24.734 17.003c-0.040-4.053 3.305-5.996 3.454-6.093-1.88-2.751-4.808-3.127-5.851-3.171-2.492-0.252-4.862 1.467-6.127 1.467-1.261 0-3.213-1.43-5.28-1.392-2.716 0.040-5.221 1.579-6.619 4.012-2.822 4.897-0.723 12.151 2.028 16.123 1.344 1.944 2.947 4.127 5.051 4.049 2.026-0.081 2.793-1.311 5.242-1.311s3.138 1.311 5.283 1.271c2.18-0.041 3.562-1.981 4.897-3.931 1.543-2.255 2.179-4.439 2.216-4.551-0.048-0.022-4.252-1.632-4.294-6.473zM20.705 5.11c1.117-1.355 1.871-3.235 1.665-5.11-1.609 0.066-3.559 1.072-4.713 2.423-1.036 1.199-1.942 3.113-1.699 4.951 1.796 0.14 3.629-0.913 4.747-2.264z"></path>
        </symbol>
        <symbol id="icon-finder" viewBox="0 0 32 32">
            <title>finder</title>
            <path d="M17.788 24.32c-0-0.001-0-0.003-0-0.004 0 0.001 0 0.003 0 0.004z"></path>
            <path d="M17.831 25.454c-0-0.007-0.001-0.015-0.001-0.022 0 0.007 0.001 0.015 0.001 0.022z"></path>
            <path d="M17.807 24.885c-0-0.006-0-0.011-0.001-0.017 0 0.006 0 0.011 0.001 0.017z"></path>
            <path d="M30 0h-28c-1.1 0-2 0.9-2 2v28c0 1.1 0.9 2 2 2h15.432c0.001 0 0.003 0 0.004 0s0.003-0 0.004-0h12.56c1.1 0 2-0.9 2-2v-28c0-1.1-0.9-2-2-2zM6 7c0-0.552 0.448-1 1-1s1 0.448 1 1v2c0 0.552-0.448 1-1 1s-1-0.448-1-1v-2zM30 30h-11.721c-0.209-1.315-0.341-2.671-0.418-3.988 0 0.004 0 0.007 0.001 0.011-0.616 0.067-1.237 0.102-1.862 0.102-4.177 0-8.199-1.52-11.328-4.281-0.466-0.411-0.51-1.122-0.099-1.588s1.122-0.51 1.588-0.099c2.717 2.398 6.211 3.718 9.839 3.718 0.596 0 1.189-0.036 1.776-0.107-0.069-3.694 0.215-6.622 0.22-6.669 0.028-0.281-0.064-0.561-0.254-0.77s-0.459-0.329-0.741-0.329h-2.974c0.043-1.082 0.159-2.932 0.467-5.006 0.589-3.961 1.625-7.055 3.005-8.994h12.502v28z"></path>
            <path d="M25 10c-0.552 0-1-0.448-1-1v-2c0-0.552 0.448-1 1-1s1 0.448 1 1v2c0 0.552-0.448 1-1 1z"></path>
            <path d="M16.89 26.101c-0.114 0.006-0.228 0.011-0.342 0.014 0.114-0.004 0.228-0.008 0.342-0.014z"></path>
            <path d="M16 26.125c0.147 0 0.293-0.002 0.439-0.006-0.146 0.004-0.292 0.006-0.439 0.006z"></path>
            <path d="M16.846 23.85c0.024-0.001 0.049-0.003 0.073-0.004-0.024 0.002-0.049 0.003-0.073 0.004z"></path>
            <path d="M16.409 23.869c0.034-0.001 0.067-0.002 0.101-0.003-0.034 0.001-0.067 0.003-0.101 0.003z"></path>
            <path d="M27.427 20.256c-0.411-0.466-1.122-0.51-1.588-0.099-2.27 2.004-5.083 3.254-8.063 3.612 0.013 0.727 0.040 1.484 0.086 2.255 3.499-0.382 6.806-1.832 9.466-4.18 0.466-0.411 0.51-1.122 0.099-1.588z"></path>
            <path d="M17.859 26.023c-0.144 0.016-0.288 0.029-0.433 0.041 0.145-0.012 0.289-0.026 0.433-0.041z"></path>
            <path d="M17.359 26.070c-0.122 0.010-0.244 0.018-0.367 0.025 0.122-0.007 0.245-0.015 0.367-0.025z"></path>
        </symbol>
        <symbol id="icon-android" viewBox="0 0 32 32" style="fill: #94c045;">
            <title>android</title>
            <path d="M28 12c-1.1 0-2 0.9-2 2v8c0 1.1 0.9 2 2 2s2-0.9 2-2v-8c0-1.1-0.9-2-2-2zM4 12c-1.1 0-2 0.9-2 2v8c0 1.1 0.9 2 2 2s2-0.9 2-2v-8c0-1.1-0.9-2-2-2zM7 23c0 1.657 1.343 3 3 3v0 4c0 1.1 0.9 2 2 2s2-0.9 2-2v-4h4v4c0 1.1 0.9 2 2 2s2-0.9 2-2v-4c1.657 0 3-1.343 3-3v-11h-18v11z"></path>
            <path d="M24.944 10c-0.304-2.746-1.844-5.119-4.051-6.551l1.001-2.001c0.247-0.494 0.047-1.095-0.447-1.342s-1.095-0.047-1.342 0.447l-1.004 2.009-0.261-0.104c-0.893-0.297-1.848-0.458-2.84-0.458s-1.947 0.161-2.84 0.458l-0.261 0.104-1.004-2.009c-0.247-0.494-0.848-0.694-1.342-0.447s-0.694 0.848-0.447 1.342l1.001 2.001c-2.207 1.433-3.747 3.805-4.051 6.551v1h17.944v-1h-0.056zM13 8c-0.552 0-1-0.448-1-1s0.447-0.999 0.998-1c0.001 0 0.002 0 0.003 0s0.001-0 0.002-0c0.551 0.001 0.998 0.448 0.998 1s-0.448 1-1 1zM19 8c-0.552 0-1-0.448-1-1s0.446-0.999 0.998-1c0 0 0.001 0 0.002 0s0.002-0 0.003-0c0.551 0.001 0.998 0.448 0.998 1s-0.448 1-1 1z"></path>
        </symbol>
        <symbol id="icon-windows" viewBox="0 0 32 32">
            <title>windows</title>
            <path style="fill: #f8682c;" d="M9.383 11.67c-0.027 0-0.053 0-0.081 0-1.548 0-3.39 0.449-5.662 1.464l2.918-11.216c2.211-0.987 4.010-1.385 5.51-1.417 0.011 0 0.022 0 0.034 0 0.882 0 1.679 0.115 2.384 0.298 1.476 0.412 3.598 1.803 3.598 1.803v0.008c-0.608 2.28-2.408 9.036-3.015 11.286-1.584-1.149-3.286-2.199-5.686-2.226z"></path>
            <path style="fill: #91c300;" d="M29.048 16.079c-0.007 0.003-0.014 0.007-0.018 0.007 0 0.005 0 0.012 0 0.016-2.072 1.070-3.969 1.495-5.674 1.495-2.581 0-4.722-0.975-6.367-2.179-0.010-0.007-0.023-0.016-0.031-0.025l2.992-11.336c0.946 0.807 3.086 2.317 6.329 2.317 1.633 0 3.541-0.382 5.72-1.424l-2.951 11.129z"></path>
            <path style="fill: #00b4f1;" d="M8.255 14.403c0.192-0.018 0.383-0.024 0.574-0.024 1.684 0 3.221 0.645 4.324 1.264 0.472 0.278 0.918 0.581 1.361 0.882-0.392 1.471-2.458 9.191-3.066 11.448-1.639-1.194-3.376-2.254-5.881-2.254-1.521 0-3.329 0.395-5.566 1.383l2.962-11.242c0.337-0.15 0.666-0.288 0.985-0.414 1.080-0.416 2.618-0.888 4.307-1.043z"></path>
            <path style="fill: #ffc300;" d="M22.688 20.225c1.572 0 3.433-0.318 5.592-1.165l-2.846 10.89c-2.454 1.108-4.416 1.549-6.057 1.549-2.593 0-6.049-2.333-6.045-2.33l2.953-11.224c0.899 0.785 2.98 2.28 6.403 2.28z"></path>
        </symbol>
        <symbol id="icon-windows2" viewBox="0 0 32 32" style="fill: #00adef;">
            <title>windows2</title>
            <path d="M10.656 15.719v10.172l-10.656-1.469v-8.703h10.656zM10.656 4.109v10.297h-10.656v-8.828zM26 15.719v12.281l-14.172-1.953v-10.328h14.172zM26 2v12.406h-14.172v-10.453z"></path>
        </symbol>
        <symbol id="icon-linux" viewBox="0 0 25 28">
            <title>linux</title>
            <path d="M10.359 6.422v0c-0.313 0.031-0.203 0.313-0.375 0.313-0.156 0.016-0.125-0.344 0.375-0.313zM11.719 6.641c-0.156 0.047-0.172-0.25-0.453-0.172v0c0.453-0.203 0.609 0.109 0.453 0.172zM6.234 13.312c-0.141-0.047-0.109 0.234-0.25 0.453-0.109 0.203-0.391 0.359-0.172 0.391v0c0.078 0.016 0.297-0.172 0.391-0.391 0.078-0.266 0.156-0.406 0.031-0.453zM19.594 18.922c0-0.281-0.609-0.547-0.859-0.656 0.422-1.406 0.234-1.969-0.047-3.297-0.219-1-1.141-2.359-1.859-2.781 0.187 0.156 0.531 0.609 0.891 1.297 0.625 1.172 1.25 2.906 0.844 4.344-0.156 0.562-0.531 0.641-0.781 0.656-1.094 0.125-0.453-1.313-0.906-3.266-0.516-2.188-1.047-2.344-1.172-2.516-0.641-2.844-1.344-2.562-1.547-3.625-0.172-0.953 0.828-1.734-0.531-2-0.422-0.078-1.016-0.5-1.25-0.531s-0.359-1.578 0.516-1.625c0.859-0.063 1.016 0.969 0.859 1.375-0.25 0.406 0.016 0.562 0.438 0.422 0.344-0.109 0.125-1.016 0.203-1.141-0.219-1.313-0.766-1.5-1.328-1.609-2.156 0.172-1.188 2.547-1.406 2.328-0.313-0.328-1.219-0.031-1.219-0.234 0.016-1.219-0.391-1.922-0.953-1.937-0.625-0.016-0.875 0.859-0.906 1.359-0.047 0.469 0.266 1.453 0.5 1.375 0.156-0.047 0.422-0.359 0.141-0.344-0.141 0-0.359-0.344-0.391-0.75-0.016-0.406 0.141-0.812 0.672-0.797 0.609 0.016 0.609 1.234 0.547 1.281-0.203 0.141-0.453 0.406-0.484 0.453-0.203 0.328-0.594 0.422-0.75 0.562-0.266 0.281-0.328 0.594-0.125 0.703 0.719 0.406 0.484 0.875 1.484 0.906 0.656 0.031 1.141-0.094 1.594-0.234 0.344-0.109 1.453-0.344 1.687-0.75 0.109-0.172 0.234-0.172 0.313-0.125 0.156 0.078 0.187 0.375-0.203 0.469-0.547 0.156-1.094 0.453-1.594 0.641-0.484 0.203-0.641 0.281-1.094 0.359-1.031 0.187-1.797-0.375-1.109 0.297 0.234 0.219 0.453 0.359 1.047 0.344 1.313-0.047 2.766-1.625 2.906-0.922 0.031 0.156-0.406 0.344-0.75 0.516-1.219 0.594-2.078 1.781-2.859 1.375-0.703-0.375-1.406-2.109-1.391-1.328 0.016 1.203-1.578 2.266-0.844 3.641-0.484 0.125-1.563 2.422-1.719 3.609-0.094 0.688 0.063 1.531-0.109 2-0.234 0.688-1.297-0.656-0.953-2.297 0.063-0.281 0-0.344-0.078-0.203-0.422 0.766-0.187 1.844 0.156 2.594 0.141 0.328 0.5 0.469 0.766 0.75 0.547 0.625 2.703 2.219 3.078 2.609 0.484 0.453 0.344 1.516-0.656 1.625v0c0.516 0.969 1.016 1.062 1 2.641 0.594-0.313 0.359-1 0.109-1.437-0.172-0.313-0.391-0.453-0.344-0.531 0.031-0.047 0.344-0.313 0.516-0.109 0.531 0.594 1.531 0.703 2.594 0.562 1.078-0.125 2.234-0.5 2.766-1.359 0.25-0.406 0.422-0.547 0.531-0.469 0.125 0.063 0.172 0.344 0.156 0.812-0.016 0.5-0.219 1.016-0.359 1.437-0.141 0.484-0.187 0.812 0.281 0.828 0.125-0.875 0.375-1.734 0.438-2.609 0.078-1-0.641-2.844 0.141-3.766 0.203-0.25 0.453-0.281 0.797-0.281 0.047-1.25 1.969-1.156 2.609-0.641zM9.781 6c0.063-0.391-0.125-0.672-0.219-0.703-0.187-0.047-0.156 0.234-0.063 0.203v0c0.063 0 0.141 0.094 0.109 0.234-0.031 0.187-0.016 0.313 0.125 0.313 0.016 0 0.047 0 0.047-0.047zM16.328 9.078c-0.063-0.297-0.281-0.187-0.531-0.344-0.297-0.187-0.359-0.5-0.469-0.391v0c-0.328 0.359 0.406 1.109 0.719 1.172 0.187 0.031 0.328-0.219 0.281-0.438zM13.547 5.75c0.016-0.375-0.313-0.562-0.391-0.547-0.203 0.016-0.141 0.109-0.047 0.141v0c0.125 0.031 0.25 0.25 0.281 0.484 0 0.031 0.156-0.031 0.156-0.078zM14.391 2.109c0.016-0.078-0.187-0.172-0.328-0.281-0.125-0.125-0.25-0.234-0.375-0.234-0.313 0.031-0.156 0.359-0.203 0.516v0c-0.063 0.172-0.297 0.313-0.141 0.438 0.141 0.109 0.234-0.172 0.531-0.281 0.078-0.031 0.438 0.016 0.516-0.156zM23.219 23.063c1.922 1.188-0.719 2.172-1.859 2.75-0.891 0.453-2.078 1.453-2.516 1.875-0.328 0.313-1.687 0.469-2.453 0.078-0.891-0.453-0.422-1.172-1.797-1.219-0.688-0.016-1.359-0.016-2.031-0.016-0.594 0.016-1.188 0.047-1.797 0.063-2.063 0.047-2.266 1.375-3.594 1.328-0.906-0.031-2.047-0.75-4.016-1.156-1.375-0.281-2.703-0.359-2.984-0.969s0.344-1.297 0.391-1.891c0.047-0.797-0.594-1.875-0.125-2.281 0.406-0.359 1.266-0.094 1.828-0.406 0.594-0.344 0.844-0.609 0.844-1.344 0.219 0.75-0.016 1.359-0.5 1.656-0.297 0.187-0.844 0.281-1.297 0.234-0.359-0.031-0.578 0.016-0.672 0.156-0.141 0.172-0.094 0.484 0.078 0.891s0.375 0.672 0.344 1.172c-0.016 0.5-0.578 1.094-0.484 1.516 0.031 0.156 0.187 0.297 0.578 0.406 0.625 0.172 1.766 0.344 2.875 0.609 1.234 0.313 2.516 0.875 3.313 0.766 2.375-0.328 1.016-2.875 0.641-3.484v0c-2.016-3.156-3.344-5.219-4.406-4.406-0.266 0.219-0.281-0.531-0.266-0.828 0.047-1.031 0.562-1.406 0.875-2.203 0.594-1.516 1.047-3.25 1.953-4.141 0.672-0.875 1.734-2.297 1.937-3.047-0.172-1.625-0.219-3.344-0.25-4.844-0.031-1.609 0.219-3.016 2.031-4 0.438-0.234 1.016-0.328 1.625-0.328 1.078-0.016 2.281 0.297 3.047 0.859 1.219 0.906 1.984 2.828 1.891 4.203-0.063 1.078 0.125 2.188 0.469 3.344 0.406 1.359 1.047 2.312 2.078 3.406 1.234 1.313 2.203 3.891 2.484 5.531 0.25 1.531-0.094 2.484-0.422 2.531-0.5 0.078-0.812 1.656-2.375 1.594-1-0.047-1.094-0.641-1.375-1.156-0.453-0.797-0.906-0.547-1.078 0.297-0.094 0.422-0.031 1.047 0.109 1.516 0.281 0.984 0.187 1.906 0.016 3.047-0.328 2.156 1.516 2.562 2.75 1.531 1.219-1.016 1.484-1.172 3.016-1.703 2.328-0.797 1.547-1.5 0.297-1.922-1.125-0.375-1.172-2.266-0.766-2.625 0.094 2.031 1.156 2.328 1.594 2.609z"></path>
        </symbol>
        <symbol id="icon-ubuntu" viewBox="0 0 32 32" style="fill: #e95420;">
            <title>ubuntu</title>
            <path d="M16 0c8.831 0 16 7.169 16 16s-7.169 16-16 16-16-7.169-16-16 7.169-16 16-16zM20.372 23.573c-1.021 0.588-1.372 1.896-0.781 2.919 0.588 1.020 1.896 1.371 2.917 0.779 1.021-0.588 1.372-1.896 0.78-2.919-0.588-1.020-1.895-1.371-2.916-0.779zM16 22.24c-0.94 0-1.831-0.209-2.628-0.58l-1.484 2.66c1.24 0.612 2.637 0.961 4.112 0.961 0.861 0 1.691-0.121 2.48-0.341 0.139-0.857 0.647-1.645 1.46-2.116 0.812-0.468 1.751-0.515 2.56-0.208 1.581-1.551 2.609-3.665 2.76-6.020l-3.047-0.044c-0.28 3.188-2.953 5.688-6.213 5.688zM9.76 16c0-2.111 1.049-3.975 2.653-5.107l-1.56-2.615c-1.872 1.24-3.26 3.159-3.841 5.38 0.675 0.539 1.107 1.379 1.107 2.32 0 0.939-0.432 1.759-1.107 2.319 0.581 2.22 1.969 4.139 3.841 5.379l1.56-2.62c-1.604-1.096-2.653-2.957-2.653-5.056zM5.12 13.864c-1.18 0-2.136 0.956-2.136 2.136s0.956 2.136 2.136 2.136 2.135-0.956 2.135-2.136-0.955-2.136-2.135-2.136zM16 9.76c3.26 0 5.933 2.5 6.213 5.687l3.047-0.045c-0.151-2.353-1.18-4.467-2.76-6.021-0.812 0.309-1.751 0.259-2.56-0.205-0.812-0.469-1.32-1.26-1.46-2.121-0.792-0.213-1.619-0.333-2.48-0.333-1.48 0-2.873 0.347-4.112 0.96l1.484 2.66c0.8-0.372 1.691-0.58 2.628-0.58zM20.372 8.425c1.020 0.589 2.328 0.241 2.919-0.78 0.588-1.020 0.241-2.328-0.784-2.92-1.020-0.587-2.328-0.239-2.919 0.785-0.588 1.019-0.24 2.325 0.784 2.915z"></path>
        </symbol>
        <symbol id="icon-chrome" viewBox="0 0 32 32">
            <title>chrome</title>
            <path style="fill: #ee6150;" d="M8.071 13.954l-4.579-7.931c2.932-3.671 7.445-6.023 12.508-6.023 5.857 0 10.978 3.148 13.767 7.844h-13.055c-0.235-0.020-0.472-0.031-0.711-0.031-3.809 0-7.018 2.614-7.929 6.142z"></path>
            <path style="fill: #58be5b;" d="M18.193 23.889l-4.581 7.934c-7.704-1.153-13.613-7.797-13.613-15.822 0-2.851 0.746-5.526 2.053-7.845l6.532 11.314c1.308 2.785 4.14 4.718 7.415 4.718 0.759 0 1.495-0.104 2.193-0.299z"></path>
            <path style="fill: #fdd800;" d="M21.728 10.156h9.171c0.711 1.81 1.101 3.781 1.101 5.844 0 8.776-7.066 15.9-15.818 15.998l6.544-11.334c0.921-1.324 1.462-2.932 1.462-4.664 0-2.287-0.943-4.357-2.459-5.844z"></path>
            <path style="fill: #3c8fc8;" d="M10.188 16c0-3.205 2.607-5.813 5.813-5.813s5.813 2.607 5.813 5.813c0 3.205-2.608 5.813-5.813 5.813s-5.813-2.608-5.813-5.813z"></path>
        </symbol>
        <symbol id="icon-firefox" viewBox="0 0 32 32" style="fill: #ef8043;">
            <title>firefox</title>
            <path d="M31.954 10.442l-0.371 2.377c0 0-0.53-4.402-1.179-6.047-0.995-2.521-1.438-2.501-1.441-2.498 0.667 1.694 0.546 2.604 0.546 2.604s-1.181-3.219-4.303-4.243c-3.459-1.134-5.33-0.824-5.547-0.765-0.033-0-0.064-0-0.095-0 0.026 0.002 0.050 0.005 0.076 0.007-0.001 0.001-0.003 0.001-0.003 0.002 0.014 0.017 3.822 0.666 4.497 1.594 0 0-1.617 0-3.227 0.464-0.073 0.021 5.923 0.749 7.148 6.74 0 0-0.657-1.371-1.47-1.604 0.535 1.626 0.397 4.712-0.112 6.245-0.066 0.197-0.133-0.853-1.135-1.305 0.321 2.301-0.019 5.952-1.616 6.957-0.124 0.078 1.001-3.603 0.226-2.18-4.46 6.838-9.731 3.155-12.101 1.535 1.215 0.264 3.52-0.041 4.541-0.8 0.001-0.001 0.002-0.002 0.004-0.003 1.108-0.758 1.765-1.311 2.354-1.18s0.982-0.46 0.524-0.985c-0.459-0.526-1.572-1.249-3.079-0.855-1.063 0.278-2.379 1.454-4.389 0.264-1.543-0.914-1.688-1.673-1.702-2.199 0.038-0.186 0.086-0.361 0.143-0.52 0.178-0.496 0.716-0.646 1.015-0.764 0.508 0.087 0.946 0.246 1.405 0.481 0.006-0.153 0.008-0.356-0.001-0.586 0.044-0.088 0.017-0.352-0.054-0.674-0.041-0.322-0.107-0.655-0.211-0.959 0-0 0.001-0 0.001-0 0.002-0.001 0.003-0.001 0.005-0.002s0.005-0.004 0.007-0.006c0-0.001 0.001-0.001 0.001-0.002 0.003-0.004 0.005-0.008 0.006-0.015 0.032-0.144 0.376-0.423 0.804-0.722 0.383-0.268 0.834-0.553 1.19-0.774 0.314-0.195 0.554-0.34 0.605-0.378 0.019-0.015 0.042-0.032 0.068-0.051 0.005-0.004 0.009-0.007 0.014-0.011 0.003-0.002 0.006-0.005 0.009-0.007 0.169-0.135 0.421-0.389 0.474-0.924 0-0.001 0-0.002 0-0.004 0.002-0.016 0.003-0.032 0.004-0.048 0.001-0.011 0.002-0.023 0.002-0.034 0-0.009 0.001-0.018 0.001-0.027 0.001-0.021 0.002-0.043 0.002-0.065 0-0.001 0-0.002 0-0.004 0.001-0.052-0-0.106-0.003-0.163-0.002-0.032-0.004-0.060-0.009-0.086-0-0.001-0.001-0.003-0.001-0.004-0.001-0.003-0.001-0.005-0.002-0.008-0.001-0.005-0.002-0.009-0.004-0.013-0-0.001-0-0.001-0.001-0.001-0.002-0.005-0.004-0.010-0.005-0.014-0-0-0-0-0-0.001-0.055-0.128-0.26-0.177-1.108-0.191-0.001-0-0.002-0-0.002-0v0c-0.346-0.006-0.798-0.006-1.391-0.004-1.039 0.004-1.613-1.016-1.797-1.41 0.251-1.389 0.977-2.379 2.17-3.051 0.023-0.013 0.018-0.023-0.009-0.031 0.233-0.141-2.82-0.004-4.225 1.782-1.247-0.31-2.333-0.289-3.269-0.069-0.18-0.005-0.404-0.027-0.67-0.083-0.623-0.564-1.514-1.606-1.562-2.85 0 0-0.003 0.002-0.008 0.006-0.001-0.012-0.002-0.024-0.002-0.036 0 0-1.897 1.458-1.613 5.434-0.001 0.064-0.002 0.125-0.004 0.184-0.514 0.696-0.768 1.282-0.787 1.411-0.455 0.926-0.917 2.32-1.292 4.437 0 0 0.263-0.833 0.79-1.777-0.388 1.188-0.693 3.036-0.514 5.808 0 0 0.047-0.615 0.215-1.5 0.131 1.719 0.704 3.841 2.152 6.337 2.78 4.791 7.052 7.211 11.775 7.582 0.839 0.069 1.689 0.071 2.544 0.006 0.079-0.006 0.157-0.011 0.236-0.018 0.968-0.068 1.942-0.214 2.914-0.449 13.287-3.212 11.842-19.256 11.842-19.256z"></path>
        </symbol>
        <symbol id="icon-IE" viewBox="0 0 32 32" style="fill: #1ebbee;">
            <title>IE</title>
            <path d="M22.944 19.651h7.377c0.057-0.512 0.080-1.034 0.080-1.569 0-2.507-0.673-4.858-1.848-6.883 1.215-3.228 1.172-5.968-0.455-7.606-1.547-1.54-5.697-1.29-10.388 0.787-0.347-0.026-0.697-0.040-1.051-0.040-6.439 0-11.841 4.431-13.335 10.402 2.020-2.586 4.145-4.461 6.984-5.826-0.258 0.242-1.764 1.739-2.018 1.993-7.486 7.484-9.847 17.26-7.306 19.8 1.931 1.93 5.43 1.604 9.449-0.364 1.869 0.952 3.984 1.488 6.226 1.488 6.035 0 11.15-3.885 13.003-9.295h-7.433c-1.023 1.887-3.023 3.171-5.319 3.171s-4.296-1.284-5.319-3.171c-0.455-0.852-0.716-1.83-0.716-2.864v-0.023h12.071zM10.884 16.025c0.171-3.035 2.694-5.456 5.774-5.456s5.604 2.421 5.774 5.456h-11.548zM28.030 5.119c1.048 1.059 1.021 3.007 0.125 5.438-1.535-2.341-3.766-4.186-6.4-5.239 2.816-1.207 5.106-1.367 6.274-0.199zM2.921 30.227c-1.337-1.337-0.934-4.144 0.788-7.526 1.072 3.008 3.161 5.534 5.854 7.161-2.982 1.354-5.423 1.584-6.643 0.365z"></path>
        </symbol>
        <symbol id="icon-edge" viewBox="0 0 32 32" style="fill: #0078d7;">
            <title>edge</title>
            <path d="M0.481 14.206c0.938-7.4 5.987-14.113 15.037-14.206 5.463 0.106 9.956 2.581 12.631 7.3 1.344 2.462 1.762 5.050 1.85 7.906v3.356h-20.081c0.094 8.281 12.188 8 17.394 4.35v6.744c-3.050 1.831-9.969 3.469-15.325 1.363-4.563-1.712-7.813-6.488-7.794-11.081-0.15-5.956 2.962-9.9 7.794-12.144-1.025 1.269-1.806 2.669-2.213 5.094h11.338c0 0 0.663-6.775-6.419-6.775-6.675 0.231-11.488 4.112-14.213 8.094v0z"></path>
        </symbol>
        <symbol id="icon-safari" viewBox="0 0 32 32" style="fill: #448aff;">
            <title>safari</title>
            <path d="M16 0c-8.838 0-16 7.162-16 16s7.162 16 16 16 16-7.163 16-16-7.163-16-16-16zM29.95 14.775l-0.031-0.331c0.006 0.113 0.019 0.219 0.031 0.331zM27.762 8.4l-0.225-0.338c0.075 0.113 0.15 0.225 0.225 0.338zM26.894 7.206l-0.137-0.169c0.050 0.056 0.094 0.112 0.137 0.169zM24.956 5.237l-0.169-0.138c0.063 0.050 0.113 0.094 0.169 0.138zM23.938 4.463l-0.337-0.225c0.113 0.075 0.225 0.15 0.337 0.225zM17.556 2.087l-0.337-0.031c0.113 0.006 0.225 0.019 0.337 0.031zM14.775 2.050l-0.338 0.031c0.113-0.006 0.225-0.019 0.338-0.031zM8.4 4.237l-0.338 0.225c0.113-0.075 0.225-0.15 0.338-0.225zM7.206 5.106l-0.162 0.131c0.056-0.044 0.106-0.088 0.162-0.131zM5.237 7.044l-0.138 0.169c0.050-0.056 0.094-0.112 0.138-0.169zM4.463 8.063l-0.225 0.338c0.075-0.113 0.15-0.225 0.225-0.338zM2.087 14.444l-0.031 0.338c0.006-0.113 0.019-0.225 0.031-0.338zM2.050 17.225l0.031 0.337c-0.006-0.113-0.019-0.225-0.031-0.337zM4.237 23.594l0.225 0.337c-0.075-0.106-0.15-0.219-0.225-0.337zM4.5 23.988l2.494-1.669-0.275-0.419-2.494 1.669c-1.131-1.756-1.875-3.775-2.125-5.95l1.494-0.15-0.050-0.5-1.494 0.15c-0.025-0.288-0.038-0.581-0.044-0.875h3v-0.5h-3c0.006-0.294 0.019-0.581 0.044-0.875l1.494 0.144 0.050-0.5-1.494-0.144c0.25-2.175 1-4.194 2.131-5.95l2.494 1.669 0.275-0.419-2.5-1.656c0.169-0.237 0.338-0.475 0.519-0.7l1.156 0.95 0.319-0.388-1.156-0.95c0.188-0.225 0.388-0.438 0.588-0.65l2.119 2.119 0.356-0.356-2.119-2.119c0.213-0.2 0.425-0.4 0.644-0.588l0.95 1.162 0.387-0.319-0.95-1.156c0.231-0.181 0.463-0.356 0.7-0.525l1.669 2.494 0.419-0.275-1.669-2.494c1.756-1.131 3.775-1.875 5.95-2.125l0.15 1.494 0.5-0.050-0.15-1.494c0.287-0.025 0.581-0.038 0.875-0.044v3h0.5v-3c0.294 0.006 0.581 0.019 0.875 0.044l-0.144 1.494 0.5 0.050 0.144-1.494c2.175 0.25 4.194 1 5.95 2.131l-1.669 2.494 0.419 0.275 1.669-2.494c0.238 0.169 0.475 0.338 0.7 0.519l-0.95 1.156 0.387 0.319 0.95-1.156c0.225 0.188 0.438 0.388 0.65 0.588l-0.8 0.781-10.938 7.294-7.294 10.937-0.781 0.781c-0.2-0.212-0.4-0.425-0.588-0.644l1.156-0.95-0.319-0.387-1.156 0.95c-0.181-0.225-0.35-0.462-0.519-0.7zM5.237 24.956c-0.044-0.056-0.088-0.106-0.131-0.163l0.131 0.163zM7.044 26.762l0.162 0.131c-0.056-0.044-0.106-0.087-0.162-0.131zM8.063 27.531l0.338 0.225c-0.113-0.069-0.225-0.144-0.338-0.225zM14.444 29.913l0.338 0.031c-0.113-0.006-0.225-0.019-0.338-0.031zM17.225 29.95l0.331-0.031c-0.113 0.006-0.219 0.019-0.331 0.031zM23.6 27.762l0.337-0.225c-0.113 0.075-0.225 0.15-0.337 0.225zM24.794 26.894l0.169-0.137c-0.056 0.050-0.113 0.094-0.169 0.137zM25.887 25.913l0.025-0.025c-0.006 0.006-0.019 0.019-0.025 0.025zM26.762 24.956l0.137-0.169c-0.050 0.056-0.094 0.113-0.137 0.169zM26.981 24.688l-1.156-0.95-0.319 0.387 1.156 0.95c-0.188 0.225-0.387 0.438-0.587 0.65l-2.119-2.119-0.356 0.356 2.119 2.119c-0.212 0.2-0.425 0.4-0.644 0.587l-0.95-1.163-0.387 0.319 0.95 1.156c-0.231 0.181-0.462 0.356-0.7 0.525l-1.669-2.494-0.419 0.275 1.669 2.494c-1.756 1.131-3.775 1.875-5.95 2.125l-0.15-1.494-0.5 0.050 0.15 1.494c-0.288 0.025-0.581 0.038-0.875 0.044v-3h-0.5v3c-0.294-0.006-0.581-0.019-0.875-0.044l0.144-1.494-0.5-0.050-0.144 1.494c-2.175-0.25-4.194-1-5.95-2.131l1.669-2.494-0.419-0.275-1.656 2.494c-0.237-0.169-0.475-0.337-0.7-0.519l0.95-1.156-0.388-0.319-0.95 1.156c-0.225-0.188-0.438-0.387-0.65-0.587l0.787-0.781 10.937-7.294 7.294-10.938 0.781-0.781c0.2 0.213 0.4 0.425 0.587 0.644l-1.156 0.95 0.319 0.387 1.156-0.95c0.181 0.231 0.356 0.463 0.525 0.7l-2.494 1.669 0.275 0.419 2.494-1.669c1.131 1.756 1.875 3.775 2.125 5.95l-1.494 0.15 0.050 0.5 1.494-0.15c0.025 0.287 0.038 0.581 0.044 0.875h-3v0.5h3c-0.006 0.294-0.019 0.581-0.044 0.875l-1.494-0.144-0.050 0.5 1.494 0.144c-0.25 2.175-1 4.194-2.131 5.95l-2.494-1.669-0.275 0.419 2.494 1.669c-0.163 0.225-0.337 0.456-0.519 0.688zM29.95 17.219c-0.012 0.113-0.019 0.225-0.031 0.337l0.031-0.337zM27.762 23.6c-0.075 0.113-0.15 0.225-0.225 0.337l0.225-0.337z"></path>
            <path d="M13.517 2.221l0.585 2.942-0.49 0.098-0.585-2.942 0.49-0.098z"></path>
            <path d="M18.489 29.78l-0.585-2.942 0.49-0.098 0.585 2.942-0.49 0.098z"></path>
            <path d="M12.176 2.528l0.436 1.435-0.478 0.145-0.436-1.435 0.478-0.145z"></path>
            <path d="M19.826 29.465l-0.436-1.435 0.478-0.145 0.436 1.435-0.478 0.145z"></path>
            <path d="M10.875 2.972l1.148 2.772-0.462 0.191-1.148-2.772 0.462-0.191z"></path>
            <path d="M21.129 29.030l-1.148-2.772 0.462-0.191 1.148 2.772-0.462 0.191z"></path>
            <path d="M9.176 3.771l0.441-0.236 0.707 1.323-0.441 0.236-0.707-1.323z"></path>
            <path d="M22.816 28.228l-0.441 0.236-0.707-1.323 0.441-0.236 0.707 1.323z"></path>
            <path d="M3.769 9.182l1.323 0.707-0.236 0.441-1.323-0.707 0.236-0.441z"></path>
            <path d="M28.226 22.819l-1.323-0.707 0.236-0.441 1.323 0.707-0.236 0.441z"></path>
            <path d="M5.744 12.019l-2.772-1.148 0.191-0.462 2.772 1.148-0.191 0.462z"></path>
            <path d="M26.26 19.978l2.772 1.148-0.191 0.462-2.772-1.148 0.191-0.462z"></path>
            <path d="M2.673 11.7l1.436 0.435-0.145 0.479-1.436-0.435 0.145-0.479z"></path>
            <path d="M29.322 20.302l-1.436-0.435 0.145-0.479 1.436 0.435-0.145 0.479z"></path>
            <path d="M2.315 13.024l2.942 0.585-0.098 0.49-2.942-0.585 0.098-0.49z"></path>
            <path d="M29.679 18.976l-2.942-0.585 0.098-0.49 2.942 0.585-0.098 0.49z"></path>
            <path d="M2.218 18.486l2.942-0.585 0.098 0.49-2.942 0.585-0.098-0.49z"></path>
            <path d="M29.776 13.513l-2.942 0.585-0.098-0.49 2.942-0.585 0.098 0.49z"></path>
            <path d="M2.53 19.829l1.435-0.436 0.145 0.478-1.435 0.436-0.145-0.478z"></path>
            <path d="M29.468 12.178l-1.435 0.436-0.145-0.478 1.435-0.436 0.145 0.478z"></path>
            <path d="M3.161 21.591l-0.191-0.462 2.772-1.148 0.191 0.462-2.772 1.148z"></path>
            <path d="M28.837 10.413l0.191 0.462-2.772 1.148-0.191-0.462 2.772-1.148z"></path>
            <path d="M3.776 22.821l-0.236-0.441 1.323-0.707 0.236 0.441-1.323 0.707z"></path>
            <path d="M28.233 9.181l0.236 0.441-1.323 0.707-0.236-0.441 1.323-0.707z"></path>
            <path d="M9.621 28.464l-0.441-0.236 0.707-1.323 0.441 0.236-0.707 1.323z"></path>
            <path d="M22.377 3.534l0.441 0.236-0.707 1.323-0.441-0.236 0.707-1.323z"></path>
            <path d="M10.415 28.837l1.148-2.772 0.462 0.191-1.148 2.772-0.462-0.191z"></path>
            <path d="M21.59 3.16l-1.148 2.772-0.462-0.191 1.148-2.772 0.462 0.191z"></path>
            <path d="M12.176 29.47l-0.478-0.145 0.435-1.435 0.478 0.145-0.435 1.435z"></path>
            <path d="M19.823 2.528l0.479 0.145-0.435 1.436-0.479-0.145 0.435-1.436z"></path>
            <path d="M13.515 29.776l-0.49-0.098 0.585-2.942 0.49 0.098-0.585 2.942z"></path>
            <path d="M18.485 2.218l0.49 0.098-0.585 2.942-0.49-0.098 0.585-2.942z"></path>
        </symbol>
        <symbol id="icon-opera" viewBox="0 0 32 32" style="fill: #ff3501;">
            <title>opera</title>
            <path d="M32 16v0 0c0 4.738-2.063 9-5.337 11.925-4.106 2-7.931 0.6-9.194-0.275 4.031-0.881 7.075-5.756 7.075-11.65s-3.044-10.769-7.075-11.656c1.269-0.875 5.094-2.275 9.194-0.275 3.275 2.931 5.337 7.194 5.337 11.931v0 0z"></path>
            <path d="M10.731 6.981c-1.769 2.087-2.912 5.175-2.987 8.644 0 0.006 0 0.744 0 0.756 0.075 3.462 1.225 6.55 2.994 8.637 2.294 2.981 5.706 4.869 9.519 4.869 2.344 0 4.538-0.712 6.413-1.956-2.837 2.531-6.575 4.069-10.669 4.069-0.256 0-0.512-0.006-0.762-0.019-8.481-0.4-15.238-7.4-15.238-15.981 0-8.838 7.162-16 16-16 0.019 0 0.038 0 0.063 0 4.075 0.013 7.787 1.55 10.606 4.075-1.875-1.244-4.069-1.962-6.413-1.962-3.813 0-7.225 1.887-9.525 4.869z"></path>
        </symbol>
        <symbol id="icon-file-pdf" viewBox="0 0 32 32">
            <title>file-pdf</title>
            <path d="M26.313 18.421c-0.427-0.42-1.372-0.643-2.812-0.662-0.974-0.011-2.147 0.075-3.38 0.248-0.552-0.319-1.122-0.665-1.568-1.083-1.202-1.122-2.205-2.68-2.831-4.394 0.041-0.16 0.075-0.301 0.108-0.444 0 0 0.677-3.846 0.498-5.146-0.025-0.178-0.040-0.23-0.088-0.369l-0.059-0.151c-0.184-0.425-0.545-0.875-1.111-0.85l-0.341-0.011c-0.631 0-1.146 0.323-1.281 0.805-0.411 1.514 0.013 3.778 0.781 6.711l-0.197 0.478c-0.55 1.34-1.238 2.689-1.846 3.88l-0.079 0.155c-0.639 1.251-1.22 2.313-1.745 3.213l-0.543 0.287c-0.040 0.021-0.97 0.513-1.188 0.645-1.852 1.106-3.079 2.361-3.282 3.357-0.065 0.318-0.017 0.725 0.313 0.913l0.525 0.264c0.228 0.114 0.468 0.172 0.714 0.172 1.319 0 2.85-1.643 4.959-5.324 2.435-0.793 5.208-1.452 7.638-1.815 1.852 1.043 4.129 1.767 5.567 1.767 0.255 0 0.475-0.024 0.654-0.072 0.276-0.073 0.508-0.23 0.65-0.444 0.279-0.42 0.335-0.998 0.26-1.59-0.023-0.176-0.163-0.393-0.315-0.541zM6.614 25.439c0.241-0.658 1.192-1.958 2.6-3.111 0.088-0.072 0.306-0.276 0.506-0.466-1.472 2.348-2.458 3.283-3.106 3.577zM14.951 6.24c0.424 0 0.665 1.069 0.685 2.070s-0.214 1.705-0.505 2.225c-0.241-0.77-0.357-1.984-0.357-2.778 0 0-0.018-1.517 0.177-1.517v0zM12.464 19.922c0.295-0.529 0.603-1.086 0.917-1.677 0.765-1.447 1.249-2.58 1.609-3.511 0.716 1.303 1.608 2.41 2.656 3.297 0.131 0.111 0.269 0.222 0.415 0.333-2.132 0.422-3.974 0.935-5.596 1.558v0zM25.903 19.802c-0.13 0.081-0.502 0.128-0.741 0.128-0.772 0-1.727-0.353-3.066-0.927 0.515-0.038 0.986-0.057 1.409-0.057 0.774 0 1.004-0.003 1.761 0.19s0.767 0.585 0.637 0.667v0z"></path>
            <path d="M28.681 7.159c-0.694-0.947-1.662-2.053-2.724-3.116s-2.169-2.030-3.116-2.724c-1.612-1.182-2.393-1.319-2.841-1.319h-15.5c-1.378 0-2.5 1.121-2.5 2.5v27c0 1.378 1.121 2.5 2.5 2.5h23c1.378 0 2.5-1.122 2.5-2.5v-19.5c0-0.448-0.137-1.23-1.319-2.841v0zM24.543 5.457c0.959 0.959 1.712 1.825 2.268 2.543h-4.811v-4.811c0.718 0.556 1.584 1.309 2.543 2.268v0zM28 29.5c0 0.271-0.229 0.5-0.5 0.5h-23c-0.271 0-0.5-0.229-0.5-0.5v-27c0-0.271 0.229-0.5 0.5-0.5 0 0 15.499-0 15.5 0v7c0 0.552 0.448 1 1 1h7v19.5z"></path>
        </symbol>
        <symbol id="icon-file-word" viewBox="0 0 32 32">
            <title>file-word</title>
            <path d="M19.993 14.872h1.382l-1.594 7.068-2.073-9.938h-3.33l-2.41 9.938-1.807-9.938h-3.481l3.534 15.996h3.401l2.384-9.46 2.133 9.46h3.136l4.051-15.996h-5.326v2.87z"></path>
            <path d="M28.681 7.159c-0.694-0.947-1.662-2.053-2.724-3.116s-2.169-2.030-3.116-2.724c-1.612-1.182-2.393-1.319-2.841-1.319h-15.5c-1.378 0-2.5 1.121-2.5 2.5v27c0 1.378 1.121 2.5 2.5 2.5h23c1.378 0 2.5-1.122 2.5-2.5v-19.5c0-0.448-0.137-1.23-1.319-2.841v0zM24.543 5.457c0.959 0.959 1.712 1.825 2.268 2.543h-4.811v-4.811c0.718 0.556 1.584 1.309 2.543 2.268v0zM28 29.5c0 0.271-0.229 0.5-0.5 0.5h-23c-0.271 0-0.5-0.229-0.5-0.5v-27c0-0.271 0.229-0.5 0.5-0.5 0 0 15.499-0 15.5 0v7c0 0.552 0.448 1 1 1h7v19.5z"></path>
        </symbol>
        <symbol id="icon-file-excel" viewBox="0 0 32 32">
            <title>file-excel</title>
            <path d="M23.22 12h-4.228l-2.992 4.407-2.992-4.407h-4.228l5.068 7.577-5.718 8.423h7.87v-2.862h-1.567l1.567-2.344 3.481 5.205h4.389l-5.718-8.423 5.068-7.577z"></path>
            <path d="M28.681 7.159c-0.694-0.947-1.662-2.053-2.724-3.116s-2.169-2.030-3.116-2.724c-1.612-1.182-2.393-1.319-2.841-1.319h-15.5c-1.378 0-2.5 1.121-2.5 2.5v27c0 1.378 1.121 2.5 2.5 2.5h23c1.378 0 2.5-1.122 2.5-2.5v-19.5c0-0.448-0.137-1.23-1.319-2.841v0zM24.543 5.457c0.959 0.959 1.712 1.825 2.268 2.543h-4.811v-4.811c0.718 0.556 1.584 1.309 2.543 2.268v0zM28 29.5c0 0.271-0.229 0.5-0.5 0.5h-23c-0.271 0-0.5-0.229-0.5-0.5v-27c0-0.271 0.229-0.5 0.5-0.5 0 0 15.499-0 15.5 0v7c0 0.552 0.448 1 1 1h7v19.5z"></path>
        </symbol>
        <symbol id="icon-question" viewBox="0 0 17 28">
            <title>question</title>
            <path d="M11 19.625v3.75c0 0.344-0.281 0.625-0.625 0.625h-3.75c-0.344 0-0.625-0.281-0.625-0.625v-3.75c0-0.344 0.281-0.625 0.625-0.625h3.75c0.344 0 0.625 0.281 0.625 0.625zM15.937 10.25c0 2.969-2.016 4.109-3.5 4.937-0.922 0.531-1.5 1.609-1.5 2.063v0c0 0.344-0.266 0.75-0.625 0.75h-3.75c-0.344 0-0.562-0.531-0.562-0.875v-0.703c0-1.891 1.875-3.516 3.25-4.141 1.203-0.547 1.703-1.062 1.703-2.063 0-0.875-1.141-1.656-2.406-1.656-0.703 0-1.344 0.219-1.687 0.453-0.375 0.266-0.75 0.641-1.672 1.797-0.125 0.156-0.313 0.25-0.484 0.25-0.141 0-0.266-0.047-0.391-0.125l-2.562-1.953c-0.266-0.203-0.328-0.547-0.156-0.828 1.687-2.797 4.062-4.156 7.25-4.156 3.344 0 7.094 2.672 7.094 6.25z"></path>
        </symbol>
        <symbol id="icon-question-circle" viewBox="0 0 24 28" style="fill: #ccc;">
            <title>question-circle</title>
            <path d="M13.75 18.75v2.5c0 0.281-0.219 0.5-0.5 0.5h-2.5c-0.281 0-0.5-0.219-0.5-0.5v-2.5c0-0.281 0.219-0.5 0.5-0.5h2.5c0.281 0 0.5 0.219 0.5 0.5zM17.75 11c0 2.219-1.547 3.094-2.688 3.734-0.812 0.469-1.313 0.766-1.313 1.266v0.5c0 0.281-0.219 0.5-0.5 0.5h-2.5c-0.281 0-0.5-0.219-0.5-0.5v-1.062c0-1.922 1.375-2.531 2.484-3.031 0.938-0.438 1.516-0.734 1.516-1.437 0-0.906-1.141-1.578-2.172-1.578-0.547 0-1.125 0.172-1.484 0.422-0.344 0.234-0.672 0.578-1.25 1.297-0.094 0.125-0.234 0.187-0.391 0.187-0.109 0-0.219-0.031-0.297-0.094l-1.687-1.281c-0.203-0.156-0.25-0.453-0.109-0.672 1.281-2.016 3.078-3 5.453-3v0c2.562 0 5.437 2.031 5.437 4.75zM12 4c-5.516 0-10 4.484-10 10s4.484 10 10 10 10-4.484 10-10-4.484-10-10-10zM24 14c0 6.625-5.375 12-12 12s-12-5.375-12-12 5.375-12 12-12v0c6.625 0 12 5.375 12 12z"></path>
        </symbol>
        <symbol id="icon-angle-left" viewBox="0 0 11 28">
            <title>angle-left</title>
            <path d="M9.797 8.5c0 0.125-0.063 0.266-0.156 0.359l-6.141 6.141 6.141 6.141c0.094 0.094 0.156 0.234 0.156 0.359s-0.063 0.266-0.156 0.359l-0.781 0.781c-0.094 0.094-0.234 0.156-0.359 0.156s-0.266-0.063-0.359-0.156l-7.281-7.281c-0.094-0.094-0.156-0.234-0.156-0.359s0.063-0.266 0.156-0.359l7.281-7.281c0.094-0.094 0.234-0.156 0.359-0.156s0.266 0.063 0.359 0.156l0.781 0.781c0.094 0.094 0.156 0.219 0.156 0.359z"></path>
        </symbol>
        <symbol id="icon-angle-right" viewBox="0 0 9 28">
            <title>angle-right</title>
            <path d="M9.297 15c0 0.125-0.063 0.266-0.156 0.359l-7.281 7.281c-0.094 0.094-0.234 0.156-0.359 0.156s-0.266-0.063-0.359-0.156l-0.781-0.781c-0.094-0.094-0.156-0.219-0.156-0.359 0-0.125 0.063-0.266 0.156-0.359l6.141-6.141-6.141-6.141c-0.094-0.094-0.156-0.234-0.156-0.359s0.063-0.266 0.156-0.359l0.781-0.781c0.094-0.094 0.234-0.156 0.359-0.156s0.266 0.063 0.359 0.156l7.281 7.281c0.094 0.094 0.156 0.234 0.156 0.359z"></path>
        </symbol>
        <symbol id="icon-angle-up" viewBox="0 0 18 28">
            <title>angle-up</title>
            <path d="M16.797 18.5c0 0.125-0.063 0.266-0.156 0.359l-0.781 0.781c-0.094 0.094-0.219 0.156-0.359 0.156-0.125 0-0.266-0.063-0.359-0.156l-6.141-6.141-6.141 6.141c-0.094 0.094-0.234 0.156-0.359 0.156s-0.266-0.063-0.359-0.156l-0.781-0.781c-0.094-0.094-0.156-0.234-0.156-0.359s0.063-0.266 0.156-0.359l7.281-7.281c0.094-0.094 0.234-0.156 0.359-0.156s0.266 0.063 0.359 0.156l7.281 7.281c0.094 0.094 0.156 0.234 0.156 0.359z"></path>
        </symbol>
        <symbol id="icon-angle-down" viewBox="0 0 18 28">
            <title>angle-down</title>
            <path d="M16.797 11.5c0 0.125-0.063 0.266-0.156 0.359l-7.281 7.281c-0.094 0.094-0.234 0.156-0.359 0.156s-0.266-0.063-0.359-0.156l-7.281-7.281c-0.094-0.094-0.156-0.234-0.156-0.359s0.063-0.266 0.156-0.359l0.781-0.781c0.094-0.094 0.219-0.156 0.359-0.156 0.125 0 0.266 0.063 0.359 0.156l6.141 6.141 6.141-6.141c0.094-0.094 0.234-0.156 0.359-0.156s0.266 0.063 0.359 0.156l0.781 0.781c0.094 0.094 0.156 0.234 0.156 0.359z"></path>
        </symbol>
    </defs>
</svg>